<svg id="Calque_1" data-name="Calque 1" xmlns="http://www.w3.org/2000/svg" viewBox="0 0 124.05 78.22"><g opacity="0.6"><circle cx="62.52" cy="31.23" r="30.1" fill="#f3f7ff" stroke="#3b5dc4" stroke-width="2.25"/><path d="M58.6,54.9a39.06,39.06,0,0,0,4.8.5A23.85,23.85,0,1,0,53.9,9.7a23.64,23.64,0,0,0-11.7,11,24.29,24.29,0,0,0-2.6,10.9,23.57,23.57,0,0,0,6,15.8" transform="translate(-0.88 -0.27)" fill="#fff" stroke="#3b5dc4" stroke-linecap="round" stroke-width="2.25" fill-rule="evenodd"/><path d="M48.4,50.1a22.22,22.22,0,0,0,6.5,3.8" transform="translate(-0.88 -0.27)" fill="none" stroke="#3b5dc4" stroke-linecap="round" stroke-width="2.25"/><path d="M63.9,14.9a16.84,16.84,0,0,0-4.5.6A17.07,17.07,0,0,0,46.8,32" transform="translate(-0.88 -0.27)" fill="none" stroke="#3b5dc4" stroke-linecap="round" stroke-opacity="0.67" stroke-width="2.25"/><path d="M88.2,55.4l5.4,5.4" transform="translate(-0.88 -0.27)" fill="none" stroke="#3b5dc4" stroke-width="2.25"/><path d="M92.7,59.9a4.41,4.41,0,0,0,0,6.2h0l10,10a4.38,4.38,0,1,0,6.2-6.2h0l-10-10a4.41,4.41,0,0,0-6.2,0Z" transform="translate(-0.88 -0.27)" fill="#3b5dc4" fill-opacity="0.17" stroke="#3b5dc4" stroke-width="2.25" fill-rule="evenodd"/><path d="M97.2,61.7l9.9,9.9" transform="translate(-0.88 -0.27)" fill="none" stroke="#fff" stroke-linecap="round" stroke-width="2.25"/><path d="M117.4,24.8H102m21.8,0h-2m-10,7h-7.4M26.5,43.7H11.1m-5.3,0H2m28.8,7.9H23.4" transform="translate(-0.88 -0.27)" fill="none" stroke="#3b5dc4" stroke-linecap="round" stroke-linejoin="round" stroke-opacity="0.67" stroke-width="2.25"/></g></svg>