<?xml version="1.0" standalone="no"?>
<!DOCTYPE svg PUBLIC "-//W3C//DTD SVG 20010904//EN"
 "http://www.w3.org/TR/2001/REC-SVG-20010904/DTD/svg10.dtd">
<svg version="1.0" xmlns="http://www.w3.org/2000/svg"
 width="810.000000pt" height="308.000000pt" viewBox="0 0 810.000000 308.000000"
 preserveAspectRatio="xMidYMid meet">

<g transform="translate(0.000000,308.000000) scale(0.100000,-0.100000)"
fill="#000000" stroke="none">
<path d="M1110 2434 l0 -126 79 3 c92 5 125 22 155 83 16 32 17 44 7 76 -6 21
-25 50 -42 64 -28 23 -39 26 -115 26 l-84 0 0 -126z"/>
<path d="M1554 2541 c-39 -24 -58 -70 -51 -122 10 -76 64 -109 177 -109 l70 0
0 125 0 125 -82 0 c-64 0 -90 -4 -114 -19z"/>
<path d="M3030 1643 l0 -398 70 0 70 0 0 308 c0 169 4 307 8 307 4 0 41 -137
82 -305 l74 -305 76 0 75 0 13 53 c77 329 137 557 143 541 4 -11 8 -149 8
-309 l1 -290 70 0 70 0 0 398 0 398 -117 -3 -117 -3 -17 -65 c-9 -36 -38 -146
-64 -245 -27 -99 -50 -190 -53 -202 -6 -31 -18 -29 -26 5 -3 15 -16 68 -30
117 -13 50 -38 144 -55 210 -18 66 -37 135 -42 153 l-11 32 -114 0 -114 0 0
-397z"/>
<path d="M5920 1975 l0 -65 75 0 75 0 0 65 0 65 -75 0 -75 0 0 -65z"/>
<path d="M6610 1900 c0 -77 -3 -140 -7 -140 -4 0 -19 12 -34 26 -38 36 -112
55 -174 43 -131 -24 -206 -151 -192 -323 9 -104 25 -144 82 -203 57 -58 111
-79 180 -68 44 6 135 57 135 75 0 5 4 10 9 10 6 0 11 -17 13 -37 l3 -38 65 0
65 0 0 395 0 395 -72 3 -73 3 0 -141z m-64 -196 c44 -29 58 -70 59 -169 0
-103 -15 -143 -68 -175 -41 -25 -73 -25 -114 0 -45 27 -65 73 -71 156 -8 128
38 204 124 204 25 0 56 -7 70 -16z"/>
<path d="M4159 1830 c-146 -25 -239 -139 -239 -294 0 -133 57 -230 163 -277
73 -32 194 -33 254 -1 111 58 156 132 161 265 4 83 2 92 -28 153 -57 116 -180
176 -311 154z m135 -140 c41 -37 59 -85 59 -160 -1 -113 -56 -185 -143 -185
-87 0 -140 71 -140 188 0 37 6 82 14 100 36 88 142 116 210 57z"/>
<path d="M5465 1830 c-87 -13 -140 -51 -169 -122 -18 -42 -17 -43 67 -53 48
-6 57 -5 57 8 0 52 137 80 181 36 14 -14 19 -30 17 -51 -3 -34 -14 -39 -168
-72 -132 -28 -180 -76 -180 -177 0 -104 66 -164 180 -164 67 1 113 17 157 58
26 23 25 23 39 -18 9 -29 12 -30 78 -33 67 -3 68 -3 62 20 -19 64 -26 150 -24
289 1 176 -8 212 -64 247 -27 17 -154 46 -178 41 -3 -1 -28 -5 -55 -9z m155
-355 c0 -61 -17 -93 -62 -116 -53 -27 -84 -24 -119 10 -58 58 -29 104 81 131
104 26 100 27 100 -25z"/>
<path d="M4632 1588 c3 -214 5 -236 24 -268 61 -104 222 -117 317 -25 l37 36
0 -46 0 -46 68 3 67 3 3 288 2 287 -75 0 -75 0 -1 -182 c0 -115 -5 -196 -12
-217 -15 -43 -52 -71 -105 -78 -36 -5 -45 -2 -72 25 l-30 30 0 211 0 211 -76
0 -75 0 3 -232z"/>
<path d="M5922 1533 l3 -288 70 0 70 0 3 288 2 287 -75 0 -75 0 2 -287z"/>
<path d="M6840 1817 c0 -3 47 -131 105 -285 58 -154 105 -288 105 -298 0 -27
-35 -80 -64 -99 -17 -11 -40 -16 -70 -14 l-44 4 5 -50 c3 -27 11 -54 17 -58 6
-4 45 -6 87 -4 94 4 135 27 171 94 14 27 79 194 143 373 64 179 119 329 122
333 3 4 -30 7 -73 5 l-78 -3 -64 -197 c-35 -109 -67 -198 -71 -198 -3 0 -36
89 -72 198 l-65 197 -77 3 c-42 2 -77 1 -77 -1z"/>
<path d="M2210 1487 c-14 -7 -32 -27 -41 -44 -47 -95 72 -180 145 -104 46 48
30 128 -30 151 -33 13 -44 12 -74 -3z"/>
<path d="M1370 1150 l0 -70 -128 0 c-165 0 -207 -13 -284 -90 -45 -45 -60 -69
-74 -115 -33 -115 1 -234 90 -312 122 -107 330 -94 440 28 56 61 76 132 76
264 l0 114 278 3 c258 3 280 4 323 24 58 27 124 86 161 143 31 50 35 63 15 55
-8 -3 -34 0 -58 5 -43 10 -45 9 -79 -28 -19 -21 -55 -49 -80 -62 -44 -23 -50
-24 -300 -24 l-255 0 -3 68 -3 67 -59 0 -60 0 0 -70z m0 -295 c0 -96 -3 -122
-20 -155 -52 -102 -209 -130 -300 -54 -104 88 -81 248 45 305 31 15 65 19 158
19 l117 0 0 -115z"/>
</g>
</svg>
